<?xml version="1.0" encoding="UTF-8" standalone="no"?>
<!DOCTYPE svg PUBLIC "-//W3C//DTD SVG 1.1//EN" "http://www.w3.org/Graphics/SVG/1.1/DTD/svg11.dtd">
<svg version="1.1" xmlns="http://www.w3.org/2000/svg" xmlns:xlink="http://www.w3.org/1999/xlink" preserveAspectRatio="xMidYMid meet" viewBox="0 0 640 383" width="640" height="383"><defs><path d="M0 383.2L0 0L640 0L640 383.2L0 383.2ZM467.13 92.32L465.82 92.34L464.53 92.36L463.27 92.39L462.03 92.42L460.83 92.46L459.66 92.51L458.54 92.57L457.45 92.63L456.41 92.69L455.42 92.76L454.48 92.84L453.59 92.93L452.76 93.02L452 93.12L450.77 93.3L449.54 93.5L448.31 93.7L447.09 93.91L445.86 94.13L444.64 94.36L443.42 94.6L442.21 94.84L441 95.09L439.79 95.36L438.58 95.62L437.38 95.9L436.19 96.19L435 96.48L433.81 96.78L432.63 97.09L431.46 97.41L430.29 97.73L429.13 98.06L427.98 98.4L426.83 98.75L425.7 99.1L424.57 99.46L423.45 99.82L422.34 100.2L421.23 100.58L420.14 100.97L419.06 101.36L417.98 101.76L416.92 102.17L415.87 102.58L414.83 103L413.8 103.42L412.79 103.85L411.78 104.29L410.79 104.73L409.81 105.18L408.85 105.63L407.9 106.09L406.96 106.56L404.75 107.69L402.57 108.87L400.4 110.1L398.25 111.36L396.13 112.67L394.02 114.03L391.94 115.42L389.88 116.86L387.85 118.33L385.83 119.85L383.85 121.4L381.89 122.99L379.96 124.61L378.06 126.27L376.18 127.97L374.33 129.7L372.52 131.46L370.73 133.26L368.98 135.08L367.26 136.94L365.57 138.83L363.92 140.74L362.3 142.69L360.72 144.66L359.17 146.65L357.66 148.68L356.19 150.72L354.76 152.79L353.37 154.89L352.02 157.01L350.7 159.14L349.43 161.3L348.21 163.48L347.02 165.67L345.88 167.89L344.79 170.12L343.74 172.37L342.74 174.63L341.79 176.91L340.88 179.2L340.45 180.35L340.02 181.52L339.61 182.71L339.2 183.93L338.81 185.17L338.42 186.44L338.04 187.72L337.68 189.02L337.32 190.33L336.98 191.67L336.64 193.02L336.32 194.38L336.01 195.75L335.71 197.14L335.42 198.54L335.14 199.95L334.87 201.37L334.61 202.8L334.37 204.23L334.14 205.67L333.92 207.11L333.71 208.56L333.52 210.01L333.34 211.46L333.17 212.91L333.02 214.36L332.88 215.81L332.75 217.26L332.63 218.7L332.53 220.14L332.45 221.57L332.37 222.99L332.31 224.41L332.27 225.82L332.24 227.21L332.23 228.6L332.23 229.97L332.24 231.33L332.27 232.67L332.32 234L332.47 236.93L332.66 239.85L332.92 242.73L333.22 245.6L333.57 248.44L333.98 251.25L334.44 254.04L334.95 256.81L335.51 259.55L336.13 262.27L336.79 264.96L337.51 267.63L338.28 270.27L339.1 272.89L339.97 275.48L340.89 278.04L341.86 280.58L342.88 283.09L343.96 285.57L345.08 288.03L346.25 290.46L347.48 292.86L348.75 295.24L350.08 297.58L351.45 299.9L352.88 302.2L354.35 304.46L355.88 306.69L357.45 308.9L359.07 311.07L360.74 313.22L362.47 315.34L364.24 317.43L366.06 319.49L367.93 321.51L369.84 323.51L371.81 325.48L373.82 327.42L375.89 329.32L378 331.2L380.02 332.93L382.05 334.61L384.1 336.24L386.15 337.83L388.22 339.36L390.3 340.86L392.4 342.3L394.51 343.7L396.63 345.05L398.77 346.35L400.93 347.61L403.1 348.83L405.29 349.99L407.5 351.12L409.73 352.19L411.97 353.23L414.24 354.21L416.52 355.16L418.83 356.06L421.16 356.91L423.51 357.72L425.89 358.49L428.28 359.21L430.7 359.89L433.15 360.53L435.62 361.12L438.12 361.67L440.64 362.18L443.19 362.65L445.77 363.07L448.38 363.45L451.01 363.79L453.68 364.09L456.37 364.35L459.1 364.57L461.85 364.74L464.64 364.88L467.46 364.97L470.31 365.03L473.2 365.04L475.62 365.02L478.03 364.98L480.41 364.9L482.77 364.8L485.11 364.66L487.43 364.49L489.73 364.29L492 364.06L494.26 363.8L496.5 363.51L498.72 363.19L500.92 362.83L503.1 362.44L505.27 362.03L507.41 361.58L509.54 361.1L511.65 360.58L513.74 360.04L515.82 359.46L517.88 358.85L519.92 358.21L521.95 357.53L523.96 356.83L525.96 356.09L527.94 355.32L529.91 354.51L531.86 353.68L533.8 352.81L535.73 351.9L537.64 350.97L539.54 350L541.42 348.99L543.3 347.96L545.16 346.89L547.01 345.78L548.84 344.65L550.67 343.48L552.48 342.27L554.29 341.03L556.08 339.76L558.18 338.22L560.24 336.65L562.27 335.05L564.27 333.41L566.23 331.73L568.16 330.02L570.05 328.29L571.91 326.52L573.73 324.71L575.52 322.88L577.27 321.02L578.98 319.14L580.65 317.22L582.29 315.28L583.89 313.31L585.45 311.31L586.96 309.29L588.44 307.25L589.88 305.18L591.28 303.09L592.64 300.98L593.95 298.84L595.22 296.69L596.45 294.52L597.64 292.32L598.78 290.11L599.88 287.88L600.93 285.63L601.94 283.37L602.9 281.09L603.82 278.8L604.69 276.49L605.51 274.17L606.29 271.83L607.02 269.49L607.7 267.13L608.33 264.76L608.91 262.38L609.44 260L609.92 257.6L610.09 256.7L610.25 255.79L610.4 254.87L610.55 253.93L610.7 252.98L610.83 252.01L610.97 251.04L611.1 250.05L611.22 249.06L611.34 248.05L611.45 247.04L611.55 246.02L611.65 244.99L611.75 243.95L611.84 242.91L611.92 241.87L612 240.82L612.07 239.77L612.13 238.72L612.19 237.66L612.24 236.6L612.29 235.55L612.33 234.49L612.36 233.44L612.39 232.38L612.41 231.33L612.42 230.29L612.43 229.25L612.43 228.21L612.43 227.18L612.42 226.16L612.4 225.14L612.37 224.13L612.34 223.13L612.3 222.14L612.25 221.16L612.2 220.19L612.14 219.24L612.07 218.29L612 217.36L611.92 216.31L611.83 215.28L611.74 214.28L611.65 213.3L611.56 212.35L611.47 211.41L611.38 210.5L611.28 209.62L611.18 208.74L611.08 207.89L610.98 207.06L610.87 206.24L610.76 205.43L610.65 204.64L610.53 203.86L610.41 203.1L610.29 202.34L610.16 201.59L610.03 200.85L609.89 200.12L609.75 199.39L609.6 198.67L609.45 197.96L609.29 197.24L609.13 196.53L608.96 195.81L608.79 195.1L608.61 194.39L608.42 193.67L608.23 192.95L608.03 192.22L607.83 191.49L607.61 190.75L607.4 190L607.17 189.24L606.93 188.48L606.69 187.7L606.44 186.91L606.19 186.1L605.92 185.28L605.4 183.72L604.86 182.17L604.32 180.64L603.75 179.13L603.18 177.63L602.59 176.15L601.99 174.68L601.38 173.23L600.75 171.79L600.1 170.36L599.44 168.95L598.77 167.55L598.08 166.17L597.38 164.79L596.66 163.43L595.92 162.08L595.17 160.74L594.4 159.41L593.61 158.09L592.81 156.78L591.99 155.48L591.15 154.19L590.3 152.91L589.42 151.63L588.53 150.36L587.62 149.1L586.69 147.85L585.74 146.6L584.78 145.36L583.79 144.13L582.78 142.9L581.76 141.67L580.71 140.45L579.65 139.24L578.56 138.02L577.45 136.81L576.32 135.61L575.17 134.4L573.99 133.2L572.8 132L571.24 130.46L569.66 128.96L568.08 127.49L566.5 126.06L564.9 124.65L563.29 123.28L561.67 121.95L560.04 120.64L558.39 119.37L556.74 118.13L555.07 116.92L553.38 115.74L551.68 114.59L549.97 113.47L548.24 112.38L546.49 111.32L544.73 110.29L542.95 109.29L541.15 108.32L539.33 107.37L537.49 106.45L535.63 105.56L533.75 104.7L531.85 103.86L529.93 103.05L527.98 102.27L526.01 101.51L524.02 100.78L522 100.07L519.96 99.39L517.89 98.73L515.79 98.09L513.67 97.48L511.52 96.89L509.34 96.33L507.13 95.79L504.9 95.27L502.63 94.77L500.33 94.29L498 93.84L497.29 93.72L496.51 93.6L495.67 93.48L494.78 93.37L493.83 93.27L492.83 93.17L491.78 93.08L490.68 92.99L489.55 92.91L488.37 92.83L487.16 92.75L485.92 92.69L484.65 92.62L483.36 92.57L482.05 92.52L480.71 92.47L479.37 92.43L478.01 92.39L476.64 92.36L475.27 92.34L473.9 92.32L472.53 92.31L471.16 92.3L469.8 92.3L468.46 92.31L467.13 92.32ZM30.47 19.35L30.63 19.64L30.94 20.18L31.38 20.97L31.97 22.01L32.69 23.28L33.55 24.79L34.53 26.52L35.64 28.47L36.87 30.62L38.22 32.98L39.68 35.54L41.25 38.28L42.92 41.21L44.69 44.32L46.56 47.59L48.53 51.02L50.58 54.61L52.72 58.35L54.93 62.23L57.23 66.24L59.6 70.38L62.04 74.64L64.54 79.01L67.1 83.49L69.72 88.07L72.4 92.74L75.12 97.5L77.89 102.34L80.7 107.24L83.55 112.22L86.43 117.25L89.34 122.33L92.27 127.46L95.23 132.62L98.2 137.82L101.19 143.03L104.19 148.27L107.19 153.51L110.2 158.76L113.2 164L114.25 165.83L115.3 167.65L116.34 169.48L117.38 171.29L118.42 173.09L119.45 174.89L120.47 176.67L121.49 178.44L122.49 180.2L123.49 181.93L124.47 183.65L125.45 185.35L126.41 187.02L127.35 188.67L128.28 190.29L129.2 191.89L130.1 193.46L130.98 194.99L131.84 196.49L132.68 197.96L133.5 199.39L134.3 200.78L135.07 202.13L135.83 203.44L136.55 204.71L137.25 205.93L137.93 207.11L138.57 208.23L139.19 209.31L139.77 210.33L140.33 211.3L140.85 212.21L141.34 213.06L141.8 213.86L142.22 214.59L142.6 215.26L142.95 215.87L143.26 216.41L143.53 216.88L143.76 217.28L148.8 226.24L148.8 361.6L225.6 361.6L225.6 226.24L236.64 206.96L237.13 206.11L237.69 205.15L238.3 204.09L238.97 202.92L239.7 201.66L240.48 200.31L241.31 198.86L242.19 197.32L243.12 195.7L244.1 193.99L245.13 192.2L246.2 190.34L247.31 188.4L248.47 186.38L249.66 184.3L250.89 182.16L252.15 179.95L253.45 177.68L254.79 175.35L256.15 172.97L257.54 170.54L258.96 168.06L260.41 165.53L261.88 162.96L263.37 160.35L264.89 157.7L266.42 155.02L267.97 152.31L269.54 149.57L271.12 146.81L272.72 144.02L274.32 141.21L275.94 138.39L277.56 135.55L279.19 132.7L280.82 129.85L282.45 126.98L284.09 124.12L285.73 121.26L287.36 118.4L289 115.54L290.63 112.69L292.27 109.84L293.9 107.01L295.52 104.18L297.13 101.36L298.74 98.57L300.33 95.79L301.91 93.03L303.48 90.3L305.03 87.6L306.56 84.93L308.07 82.29L309.56 79.68L311.04 77.12L312.48 74.59L313.9 72.11L315.3 69.68L316.66 67.3L318 64.97L319.3 62.7L320.57 60.48L321.81 58.32L323.01 56.23L324.17 54.21L325.29 52.25L326.37 50.37L327.41 48.56L328.4 46.83L329.35 45.17L330.24 43.61L331.09 42.12L331.89 40.73L332.64 39.42L333.33 38.22L333.96 37.1L334.54 36.09L335.06 35.18L335.52 34.38L335.92 33.68L336.28 33.05L336.65 32.42L337 31.8L337.35 31.18L337.7 30.57L338.05 29.97L338.38 29.38L338.72 28.8L339.04 28.23L339.37 27.66L339.68 27.11L339.99 26.57L340.29 26.04L340.59 25.52L340.87 25.01L341.15 24.52L341.43 24.03L341.69 23.57L341.94 23.12L342.19 22.68L342.43 22.26L342.65 21.85L342.87 21.47L343.08 21.09L343.28 20.74L343.46 20.41L343.64 20.09L343.8 19.79L343.96 19.51L344.1 19.26L344.23 19.02L344.34 18.81L344.45 18.61L344.54 18.44L344.62 18.3L344.68 18.17L344.73 18.07L344.77 18L344.79 17.94L344.8 17.92L344.76 17.91L344.66 17.9L344.49 17.88L344.25 17.87L343.95 17.86L343.58 17.85L343.15 17.84L342.66 17.83L342.11 17.81L341.5 17.8L340.84 17.79L340.12 17.78L339.34 17.77L338.52 17.76L337.64 17.75L336.71 17.74L335.73 17.73L334.71 17.72L333.64 17.71L332.52 17.7L331.36 17.69L330.16 17.68L328.92 17.67L327.64 17.67L326.32 17.66L324.97 17.65L323.58 17.65L322.16 17.64L320.7 17.63L319.22 17.63L317.7 17.62L316.16 17.62L314.59 17.61L312.99 17.61L311.37 17.61L309.73 17.6L308.07 17.6L306.38 17.6L304.68 17.6L302.96 17.6L261.04 17.6L246.32 42.96L245.69 44.04L245.04 45.17L244.35 46.34L243.64 47.57L242.89 48.85L242.13 50.16L241.34 51.52L240.53 52.92L239.69 54.36L238.84 55.83L237.96 57.33L237.07 58.87L236.16 60.43L235.24 62.03L234.3 63.65L233.35 65.29L232.38 66.95L231.41 68.63L230.42 70.33L229.43 72.04L228.43 73.76L227.42 75.5L226.41 77.24L225.39 78.99L224.38 80.75L223.36 82.51L222.34 84.26L221.32 86.02L220.3 87.77L219.29 89.51L218.28 91.25L217.27 92.97L216.28 94.69L215.29 96.39L214.31 98.07L213.34 99.73L212.39 101.38L211.44 103L210.51 104.59L209.6 106.16L208.7 107.71L207.8 109.25L206.92 110.77L206.04 112.27L205.18 113.76L204.33 115.22L203.48 116.66L202.65 118.08L201.84 119.48L201.04 120.85L200.25 122.19L199.48 123.51L198.72 124.79L197.99 126.05L197.27 127.27L196.57 128.47L195.88 129.62L195.22 130.75L194.58 131.83L193.96 132.88L193.36 133.89L192.79 134.86L192.24 135.79L191.71 136.67L191.21 137.51L190.73 138.31L190.28 139.06L189.86 139.76L189.47 140.41L189.1 141.01L188.77 141.56L188.46 142.06L188.19 142.51L187.95 142.89L187.74 143.23L187.56 143.5L187.42 143.72L187.31 143.87L187.24 143.97L187.2 144L187.17 143.98L187.13 143.94L187.07 143.86L186.99 143.75L186.89 143.62L186.78 143.46L186.65 143.26L186.51 143.04L186.35 142.8L186.18 142.53L185.99 142.23L185.79 141.91L185.58 141.56L185.35 141.19L185.11 140.8L184.86 140.39L184.59 139.95L184.32 139.49L184.03 139.02L183.73 138.52L183.42 138L183.1 137.47L182.77 136.92L182.43 136.34L182.08 135.76L181.72 135.15L181.36 134.54L180.98 133.9L180.6 133.25L180.21 132.59L179.82 131.92L179.42 131.23L179.01 130.53L178.59 129.82L178.17 129.1L177.75 128.37L177.32 127.63L176.88 126.88L176.44 126.12L176 125.36L175.56 124.6L175.11 123.83L174.66 123.06L174.21 122.29L173.76 121.51L173.31 120.74L172.87 119.97L172.42 119.2L171.98 118.43L171.53 117.67L171.09 116.91L170.65 116.15L170.22 115.4L169.79 114.66L169.37 113.93L168.94 113.2L168.53 112.48L168.12 111.77L167.72 111.08L167.32 110.39L166.93 109.72L166.55 109.06L166.18 108.41L165.81 107.78L165.45 107.17L165.11 106.57L164.77 105.99L164.45 105.42L164.13 104.88L163.83 104.36L163.54 103.85L163.26 103.37L162.99 102.91L162.74 102.48L162.5 102.07L162.27 101.68L162.06 101.32L161.86 100.99L161.68 100.68L161.52 100.4L161.41 100.2L161.27 99.95L161.1 99.66L160.9 99.32L160.68 98.93L160.43 98.5L160.15 98.02L159.84 97.49L159.51 96.91L159.15 96.29L158.76 95.62L158.35 94.9L157.9 94.14L157.43 93.33L156.94 92.47L156.41 91.57L155.86 90.62L155.28 89.62L154.67 88.57L154.04 87.48L153.38 86.34L152.69 85.15L151.97 83.92L151.23 82.64L150.46 81.31L149.66 79.94L148.83 78.52L147.98 77.05L147.1 75.53L146.19 73.97L145.25 72.36L144.29 70.7L143.3 69L142.28 67.25L141.24 65.45L140.16 63.61L139.06 61.72L137.94 59.78L136.78 57.79L135.6 55.76L113.44 17.6L29.52 17.6L30.47 19.35ZM473.41 156.08L474.43 156.11L475.45 156.15L476.48 156.21L477.5 156.28L478.52 156.36L479.54 156.45L480.56 156.56L481.57 156.68L482.58 156.8L483.59 156.94L484.58 157.09L485.57 157.26L486.55 157.43L487.52 157.62L488.48 157.81L489.43 158.02L490.37 158.24L491.29 158.47L492.2 158.71L493.09 158.96L493.96 159.23L494.82 159.5L495.66 159.79L496.48 160.08L497.13 160.33L497.78 160.6L498.44 160.88L499.1 161.18L499.78 161.5L500.45 161.84L501.13 162.19L501.82 162.56L502.5 162.94L503.19 163.34L503.89 163.75L504.58 164.17L505.27 164.61L505.97 165.06L506.66 165.52L507.36 166L508.05 166.49L508.74 166.98L509.43 167.49L510.11 168.01L510.79 168.54L511.47 169.08L512.14 169.62L512.8 170.18L513.46 170.74L514.12 171.31L514.76 171.89L515.4 172.47L516.03 173.06L516.65 173.66L517.26 174.26L517.86 174.87L518.45 175.48L519.03 176.09L519.6 176.71L520.16 177.33L520.7 177.96L521.23 178.58L521.74 179.21L522.24 179.84L522.64 180.36L523.05 180.9L523.45 181.47L523.86 182.05L524.26 182.65L524.67 183.27L525.07 183.91L525.48 184.56L525.88 185.23L526.28 185.91L526.68 186.61L527.08 187.32L527.47 188.04L527.86 188.77L528.24 189.52L528.63 190.27L529 191.02L529.37 191.79L529.74 192.56L530.1 193.34L530.45 194.12L530.8 194.91L531.14 195.7L531.47 196.49L531.8 197.28L532.11 198.07L532.42 198.86L532.72 199.65L533.01 200.43L533.29 201.21L533.56 201.99L533.81 202.76L534.06 203.53L534.3 204.29L534.52 205.04L534.73 205.78L534.93 206.51L535.11 207.23L535.28 207.94L535.44 208.64L535.62 209.48L535.78 210.34L535.94 211.24L536.09 212.16L536.22 213.11L536.35 214.08L536.47 215.07L536.58 216.08L536.69 217.11L536.78 218.15L536.86 219.21L536.93 220.29L537 221.37L537.06 222.47L537.1 223.57L537.14 224.68L537.17 225.8L537.19 226.92L537.2 228.05L537.2 229.17L537.19 230.29L537.18 231.41L537.15 232.53L537.12 233.64L537.07 234.74L537.02 235.83L536.96 236.92L536.89 237.99L536.81 239.04L536.72 240.08L536.63 241.11L536.52 242.11L536.41 243.1L536.28 244.06L536.15 245L536.01 245.91L535.86 246.8L535.7 247.66L535.54 248.48L535.36 249.28L534.99 250.85L534.58 252.4L534.15 253.93L533.69 255.45L533.21 256.94L532.69 258.42L532.15 259.88L531.58 261.31L530.98 262.73L530.36 264.13L529.71 265.5L529.04 266.86L528.33 268.19L527.61 269.51L526.85 270.8L526.08 272.07L525.27 273.31L524.45 274.54L523.6 275.74L522.72 276.92L521.82 278.08L520.9 279.21L519.95 280.31L518.98 281.4L517.98 282.46L516.97 283.49L515.93 284.5L514.87 285.48L513.79 286.44L512.68 287.37L511.55 288.28L510.41 289.16L509.24 290.01L508.05 290.83L506.84 291.63L505.6 292.4L504.35 293.14L503.08 293.86L501.79 294.54L500.48 295.2L499.73 295.56L498.99 295.9L498.28 296.23L497.57 296.55L496.89 296.86L496.21 297.15L495.55 297.42L494.9 297.69L494.26 297.94L493.63 298.18L493 298.41L492.38 298.63L491.77 298.84L491.16 299.03L490.55 299.22L489.94 299.39L489.33 299.56L488.72 299.71L488.11 299.85L487.49 299.99L486.87 300.12L486.24 300.23L485.6 300.34L484.96 300.44L484.3 300.53L483.63 300.62L482.95 300.69L482.26 300.76L481.55 300.83L480.83 300.88L480.08 300.93L479.32 300.97L478.54 301.01L477.74 301.04L476.91 301.07L476.06 301.09L475.19 301.1L474.29 301.11L473.36 301.12L472.4 301.12L471.44 301.12L470.5 301.11L469.6 301.1L468.72 301.09L467.87 301.07L467.04 301.04L466.23 301.01L465.45 300.97L464.68 300.93L463.94 300.88L463.21 300.82L462.5 300.76L461.8 300.69L461.12 300.61L460.45 300.53L459.79 300.43L459.15 300.33L458.51 300.22L457.88 300.1L457.25 299.97L456.63 299.83L456.01 299.68L455.4 299.53L454.79 299.36L454.17 299.18L453.56 298.99L452.94 298.79L452.32 298.58L451.69 298.35L451.06 298.12L450.42 297.87L449.77 297.61L449.11 297.33L448.43 297.05L447.75 296.75L447.05 296.43L446.33 296.11L445.6 295.77L444.85 295.41L444.08 295.04L443.54 294.78L443.02 294.53L442.51 294.28L442.03 294.04L441.56 293.81L441.11 293.58L440.67 293.35L440.25 293.13L439.84 292.91L439.44 292.69L439.05 292.48L438.67 292.26L438.31 292.05L437.95 291.83L437.6 291.61L437.25 291.39L436.91 291.17L436.58 290.94L436.25 290.71L435.92 290.48L435.59 290.24L435.27 289.99L434.94 289.74L434.62 289.48L434.29 289.21L433.96 288.94L433.62 288.65L433.28 288.35L432.94 288.05L432.58 287.73L432.22 287.4L431.85 287.05L431.48 286.7L431.09 286.32L430.69 285.94L430.27 285.54L429.85 285.12L429.41 284.68L428.95 284.23L428.48 283.76L427.71 282.98L426.96 282.19L426.22 281.41L425.51 280.63L424.81 279.85L424.13 279.07L423.47 278.29L422.83 277.5L422.2 276.72L421.58 275.93L420.99 275.14L420.41 274.34L419.84 273.54L419.29 272.73L418.75 271.92L418.23 271.1L417.72 270.27L417.22 269.44L416.74 268.59L416.27 267.74L415.81 266.88L415.37 266L414.93 265.12L414.51 264.22L414.1 263.31L413.7 262.39L413.31 261.46L412.93 260.51L412.56 259.54L412.2 258.56L411.85 257.56L411.51 256.55L411.17 255.52L410.85 254.47L410.53 253.4L410.22 252.31L409.91 251.21L409.62 250.08L409.32 248.93L409.04 247.76L408.9 247.15L408.77 246.48L408.64 245.77L408.52 245.02L408.41 244.22L408.31 243.38L408.21 242.51L408.12 241.6L408.04 240.66L407.96 239.69L407.89 238.69L407.83 237.67L407.78 236.63L407.73 235.57L407.69 234.49L407.66 233.4L407.63 232.3L407.61 231.19L407.6 230.07L407.6 228.95L407.6 227.83L407.61 226.71L407.63 225.6L407.66 224.49L407.69 223.39L407.73 222.31L407.78 221.24L407.83 220.18L407.89 219.15L407.96 218.14L408.04 217.15L408.12 216.2L408.21 215.27L408.31 214.37L408.41 213.51L408.52 212.69L408.64 211.91L408.77 211.17L408.9 210.48L409.04 209.84L409.28 208.81L409.53 207.79L409.79 206.79L410.06 205.79L410.34 204.8L410.63 203.81L410.93 202.84L411.24 201.88L411.56 200.92L411.89 199.97L412.24 199.04L412.59 198.11L412.95 197.19L413.33 196.28L413.71 195.37L414.1 194.48L414.51 193.59L414.93 192.71L415.35 191.84L415.79 190.98L416.24 190.13L416.7 189.28L417.17 188.44L417.65 187.61L418.14 186.79L418.64 185.98L419.15 185.17L419.67 184.37L420.21 183.58L420.75 182.8L421.31 182.02L421.87 181.25L422.45 180.49L423.04 179.73L423.64 178.99L424.25 178.25L424.87 177.52L425.5 176.79L426.15 176.07L426.8 175.36L427.48 174.64L428.16 173.93L428.85 173.23L429.54 172.56L430.23 171.89L430.92 171.24L431.62 170.61L432.33 169.99L433.04 169.39L433.75 168.8L434.46 168.23L435.19 167.66L435.91 167.12L436.65 166.59L437.38 166.07L438.13 165.56L438.88 165.07L439.63 164.59L440.39 164.13L441.16 163.68L441.93 163.24L442.72 162.82L443.5 162.41L444.3 162.01L445.1 161.62L445.91 161.25L446.73 160.89L447.56 160.54L448.39 160.2L449.23 159.88L450.08 159.57L450.94 159.27L451.81 158.98L452.69 158.7L453.58 158.44L454.47 158.18L455.38 157.94L456.3 157.71L457.22 157.49L458.16 157.28L459.02 157.11L459.89 156.95L460.78 156.8L461.68 156.67L462.6 156.55L463.54 156.44L464.48 156.35L465.44 156.27L466.41 156.2L467.39 156.14L468.38 156.1L469.37 156.07L470.37 156.05L471.38 156.05L472.39 156.06L473.41 156.08Z" id="aZLm6dVXl"></path></defs><g><g><g><use xlink:href="#aZLm6dVXl" opacity="1" fill="#9b59b6" fill-opacity="1"></use><g><use xlink:href="#aZLm6dVXl" opacity="1" fill-opacity="0" stroke="#000000" stroke-width="1" stroke-opacity="0"></use></g></g></g></g></svg>